<?xml version="1.0" standalone="no"?>
<svg xmlns="http://www.w3.org/2000/svg" viewBox="0 0 152.041 36" width="152.041" height="36">
    <g fill="#FFA300" color="#FFA300" transform="translate(0 3.9999999999999982) scale(0.2800001)"><svg width="100.0"
            height="100.0" x="0.0" y="0.0" viewBox="0 0 100 100">
            <g>
                <g>
                    <path
                        d="M81.9,47.2V22.9H32.3v-5.9V9.6h-7.4v0l-13.6,0v7.4l13.6,0v39.7v7.4h7.4v0l56.2,0v-7.4l-56.2,0v-9.6H81.9z M32.3,29.1h42.9    v12H32.3V29.1z">
                    </path>
                </g>
                <path
                    d="M35.9,68c-6.2,0-11.2,5-11.2,11.2c0,6.2,5,11.2,11.2,11.2s11.2-5,11.2-11.2C47.1,73,42.1,68,35.9,68z M35.9,82.5   c-1.8,0-3.3-1.5-3.3-3.3c0-1.8,1.5-3.3,3.3-3.3s3.3,1.5,3.3,3.3C39.2,81,37.7,82.5,35.9,82.5z">
                </path>
                <path
                    d="M77.6,68c-6.2,0-11.2,5-11.2,11.2c0,6.2,5,11.2,11.2,11.2c6.2,0,11.2-5,11.2-11.2C88.8,73,83.8,68,77.6,68z M77.6,82.5   c-1.8,0-3.3-1.5-3.3-3.3c0-1.8,1.5-3.3,3.3-3.3c1.8,0,3.3,1.5,3.3,3.3C80.9,81,79.4,82.5,77.6,82.5z">
                </path>
            </g>
        </svg></g>
    <path fill="#FFA300" fill-rule="nonzero"
        d="M12.48 0.14L12.48 3.12L7.90 3.12L7.90 17.23L4.56 17.23L4.56 3.12L0 3.12L0 0.14L12.48 0.14ZM24.31 0.14L27.62 0.14L27.62 11.38Q27.62 14.16 25.74 15.77Q23.86 17.38 21.10 17.38Q18.34 17.38 16.45 15.77Q14.57 14.16 14.57 11.38L14.57 11.38L14.57 0.14L17.90 0.14L17.90 11.26Q17.90 12.84 18.78 13.62Q19.66 14.40 21.10 14.40Q22.54 14.40 23.42 13.62Q24.31 12.84 24.31 11.26L24.31 11.26L24.31 0.14ZM34.44 0.14L34.44 17.23L31.10 17.23L31.10 0.14L34.44 0.14ZM49.54 0.14L49.54 3.12L44.95 3.12L44.95 17.23L41.62 17.23L41.62 3.12L37.06 3.12L37.06 0.14L49.54 0.14ZM69.22 12.19L69.22 12.19Q69.22 14.62 67.44 16.00Q65.66 17.38 62.90 17.38L62.90 17.38Q60.72 17.38 58.68 16.18L58.68 16.18Q57.67 15.55 57.02 14.41Q56.38 13.27 56.38 11.81L56.38 11.81L59.40 11.66Q59.40 12.96 60.50 13.68Q61.61 14.40 62.95 14.40L62.95 14.40Q65.95 14.40 65.95 12.29L65.95 12.29Q65.95 10.56 63.91 10.25L63.91 10.25L61.13 9.96Q59.04 9.65 57.82 8.47Q56.59 7.30 56.59 5.09Q56.59 2.88 58.34 1.44Q60.10 0 62.77 0Q65.45 0 67.08 1.36Q68.71 2.71 68.71 4.85L68.71 4.85L65.74 4.99Q65.33 2.90 62.93 2.90L62.93 2.90Q61.46 2.90 60.64 3.53Q59.81 4.15 59.81 5.00Q59.81 5.86 60.41 6.35Q61.01 6.84 61.90 6.96L61.90 6.96L64.63 7.25Q69.22 7.87 69.22 12.19ZM84.58 0.14L84.58 17.23L81.24 17.23L81.24 10.32L74.98 10.32L74.98 17.23L71.64 17.23L71.64 0.14L74.98 0.14L74.98 7.37L81.24 7.37L81.24 0.14L84.58 0.14ZM100.85 7.90L100.85 7.90L100.85 9.19Q100.85 13.49 99.23 15.43Q97.61 17.38 94.03 17.38Q90.46 17.38 88.86 15.43Q87.26 13.49 87.26 9.12L87.26 9.12L87.26 7.87Q87.26 3.89 88.88 1.94Q90.50 0 94.02 0Q97.54 0 99.19 1.97Q100.85 3.94 100.85 7.90ZM97.51 9.12L97.51 9.12L97.51 8.23Q97.51 5.93 96.94 4.56L96.94 4.56Q96.26 2.98 94.06 2.98L94.06 2.98Q91.82 2.98 91.15 4.56L91.15 4.56Q90.60 5.86 90.60 8.23L90.60 8.23L90.60 9.12Q90.60 12.22 91.46 13.30L91.46 13.30Q91.80 13.75 92.46 14.08Q93.12 14.40 94.04 14.40Q94.97 14.40 95.62 14.09Q96.26 13.78 96.62 13.32Q96.98 12.86 97.18 12.12L97.18 12.12Q97.51 10.94 97.51 9.12ZM114.56 1.62Q116.04 3.10 116.04 5.95Q116.04 8.81 114.56 10.28Q113.09 11.76 110.40 11.76L110.40 11.76L107.11 11.76L107.11 17.23L103.78 17.23L103.78 0.14L110.40 0.14Q113.09 0.14 114.56 1.62ZM112.70 5.95L112.70 5.95Q112.70 3.12 110.23 3.12L110.23 3.12L107.11 3.12L107.11 8.76L110.23 8.76Q111.43 8.76 112.07 8.11Q112.70 7.46 112.70 5.95Z"
        transform="translate(36, 9.384)"></path>
</svg>