<svg width="27" height="25" viewBox="0 0 27 25" fill="none" xmlns="http://www.w3.org/2000/svg">
<path d="M26.5862 21.6443L20.4654 16.1902C21.939 14.4421 22.7345 12.3143 22.7318 10.128C22.7318 4.54346 17.633 0 11.3659 0C5.09879 0 0 4.54346 0 10.128C0 15.7125 5.09879 20.256 11.3659 20.256C13.8195 20.2584 16.2073 19.5495 18.1691 18.2364L24.2898 23.6905C24.5997 23.9373 25.0038 24.0691 25.4192 24.0587C25.8346 24.0484 26.2298 23.8967 26.5237 23.6348C26.8175 23.373 26.9877 23.0208 26.9994 22.6507C27.011 22.2805 26.8631 21.9204 26.5862 21.6443ZM3.24741 10.128C3.24741 8.69719 3.72355 7.29852 4.61562 6.10885C5.5077 4.91917 6.77563 3.99194 8.2591 3.44439C9.74256 2.89685 11.3749 2.75358 12.9498 3.03272C14.5246 3.31186 15.9712 4.00085 17.1066 5.01259C18.242 6.02432 19.0152 7.31335 19.3284 8.71666C19.6417 10.12 19.4809 11.5745 18.8664 12.8964C18.252 14.2183 17.2114 15.3482 15.8763 16.1431C14.5412 16.938 12.9716 17.3623 11.3659 17.3623C9.21355 17.36 7.15007 16.5971 5.62812 15.2409C4.10616 13.8847 3.24999 12.0459 3.24741 10.128Z" fill="black"/>
</svg>
